<svg xmlns="http://www.w3.org/2000/svg" width="20" height="20" viewBox="0 0 20 20">
<path d="M3.06 4 C2.299 4.283 1.758 5.015 1.758 5.875 L1.75 5.875 L1.75 14.125 L1.758 14.125 C1.758 14.985 2.299 15.717 3.06 16 L16.94 16 C17.701 15.717 18.242 14.985 18.242 14.125 L18.25 14.125 L18.25 5.875 L18.242 5.875 C18.242 5.015 17.701 4.283 16.94 4 Z M4 14 L4 6 L16 6 L16 14 Z" fill="#ebfffd"/>
<path d="M3.883 5 C3.883 5.551 3.461 6 2.941 6 C2.422 6 2 5.551 2 5 C2 4.449 2.422 4 2.941 4 C3.461 4 3.883 4.449 3.883 5 Z" fill="none" stroke="#ebfffd" stroke-width="2" stroke-linejoin="round"/>
<path d="M18 5 C18 5.551 17.578 6 17.059 6 C16.539 6 16.117 5.551 16.117 5 C16.117 4.449 16.539 4 17.059 4 C17.578 4 18 4.449 18 5 Z" fill="none" stroke="#ebfffd" stroke-width="2" stroke-linejoin="round"/>
<path d="M18 15 C18 15.551 17.578 16 17.059 16 C16.539 16 16.117 15.551 16.117 15 C16.117 14.449 16.539 14 17.059 14 C17.578 14 18 14.449 18 15 Z" fill="none" stroke="#ebfffd" stroke-width="2" stroke-linejoin="round"/>
<path d="M3.883 15 C3.883 15.551 3.461 16 2.941 16 C2.422 16 2 15.551 2 15 C2 14.449 2.422 14 2.941 14 C3.461 14 3.883 14.449 3.883 15 Z" fill="none" stroke="#ebfffd" stroke-width="2" stroke-linejoin="round"/>
</svg>
