<svg xmlns="http://www.w3.org/2000/svg" width="25" height="25" viewBox="0 0 25 25">
<defs>
<linearGradient id="s">
<stop offset="0" stop-color="#000000" stop-opacity="0.15"/>
<stop offset="0.219" stop-color="#000000" stop-opacity="0.148"/>
<stop offset="0.365" stop-color="#000000" stop-opacity="0.135"/>
<stop offset="0.51" stop-color="#000000" stop-opacity="0.099"/>
<stop offset="0.656" stop-color="#000000" stop-opacity="0.046"/>
<stop offset="0.76" stop-color="#000000" stop-opacity="0.018"/>
<stop offset="1" stop-color="#000000" stop-opacity="0"/>
</linearGradient>
<linearGradient id="t" href="#s" gradientUnits="userSpaceOnUse" x1="0" y1="11" x2="0" y2="-1"/>
<linearGradient id="b" href="#s" gradientUnits="userSpaceOnUse" x1="0" y1="13" x2="0" y2="25"/>
<linearGradient id="l" href="#s" gradientUnits="userSpaceOnUse" x1="12" y1="0" x2="0" y2="0"/>
<linearGradient id="r" href="#s" gradientUnits="userSpaceOnUse" x1="13" y1="0" x2="25" y2="0"/>
<radialGradient id="tl" href="#s" gradientUnits="userSpaceOnUse" cx="12" cy="11" r="12"/>
<radialGradient id="tr" href="#s" gradientUnits="userSpaceOnUse" cx="13" cy="11" r="12"/>
<radialGradient id="bl" href="#s" gradientUnits="userSpaceOnUse" cx="12" cy="13" r="12"/>
<radialGradient id="br" href="#s" gradientUnits="userSpaceOnUse" cx="13" cy="13" r="12"/>
</defs>
<rect x="12" y="11" width="1" height="2" fill="#000000" fill-opacity="0.15"/>
<rect x="12" y="0" width="1" height="11" fill="url(#t)"/>
<rect x="12" y="13" width="1" height="12" fill="url(#b)"/>
<rect x="0" y="11" width="12" height="2" fill="url(#l)"/>
<rect x="13" y="11" width="12" height="2" fill="url(#r)"/>
<rect x="0" y="0" width="12" height="11" fill="url(#tl)"/>
<rect x="13" y="0" width="12" height="11" fill="url(#tr)"/>
<rect x="0" y="13" width="12" height="12" fill="url(#bl)"/>
<rect x="13" y="13" width="12" height="12" fill="url(#br)"/>
<path d="M20 11.075 L20 12.925 C20 16.18 16.68 19.5 13.425 19.5 L11.575 19.5 C8.32 19.5 5 16.18 5 12.925 L5 11.075 C5 7.82 8.32 4.5 11.575 4.5 L13.425 4.5 C16.68 4.5 20 7.82 20 11.075 Z" fill="#70ccc0"/>
<path d="M7.5 11.5 L9.65 11.5 L11.5 13.35 L15.35 9.5 L17.5 9.5 L17.5 11.65 L12.65 16.5 L10.35 16.5 L7.5 13.65 Z" fill="#fbfbfb"/>
</svg>
