<svg xmlns="http://www.w3.org/2000/svg" width="20" height="20" viewBox="0 0 20 20">
<path d="M8.543 14.5 C8.528 14.486 8.514 14.472 8.5 14.457 L8.5 10.332 L8.375 10.332 L4.52 6.48 C4.513 6.474 4.507 6.467 4.5 6.46 L4.375 5.877 C4.375 5.812 4.388 5.746 4.414 5.684 C4.443 5.612 4.487 5.549 4.543 5.5 L14.457 5.5 C14.513 5.549 14.557 5.612 14.586 5.684 C14.612 5.746 14.625 5.812 14.625 5.877 L14.5 6.46 C14.493 6.467 14.487 6.474 14.48 6.48 L10.625 10.332 L10.5 10.332 L10.5 14.457 C10.486 14.472 10.472 14.486 10.457 14.5 Z" fill="#1d6969"/>
<path d="M14 7 L14.004 7 Z M14 5 L5 5 C4.598 5 4.23 5.242 4.074 5.617 C3.922 5.992 4.008 6.422 4.293 6.707 L8 10.414 L8 14 C8 14.551 8.449 15 9 15 L10 15 C10.551 15 11 14.551 11 14 L11 10.414 L14.707 6.707 C14.992 6.422 15.078 5.992 14.926 5.617 C14.77 5.242 14.402 5 14 5 M14 6 L10 10 L10 14 L9 14 L9 10 L5 6 Z" fill="#1d6969"/>
</svg>
